<svg height="511pt" viewBox="1 0 511.99998 511" width="511pt" xmlns="http://www.w3.org/2000/svg"><path d="m404.460938 288.261719h-.34375v-27.617188c0-76.5-62.238282-138.738281-138.738282-138.738281h-60.105468c-76.5 0-138.738282 62.238281-138.738282 138.738281v28.644531c-37.671875 6.089844-66.535156 38.828126-66.535156 78.191407v35.804687c0 24.542969 19.964844 44.507813 44.503906 44.507813h422.992188c24.539062 0 44.503906-19.964844 44.503906-44.507813v-7.488281c0-59.296875-48.242188-107.535156-107.539062-107.535156zm0 0" fill="#ff8859"/><path d="m512 395.800781v7.484375c0 24.542969-19.964844 44.507813-44.507812 44.507813h-227.097657v-325.890625h24.984375c76.496094 0 138.734375 62.242187 138.734375 138.746094v27.609374h.355469c59.292969 0 107.53125 48.246094 107.53125 107.542969zm0 0" fill="#ff7037"/><path d="m225.804688 161.476562v117.46875c0 5.144532-4.167969 9.3125-9.308594 9.3125h-110.386719c-5.144531 0-9.3125-4.167968-9.3125-9.3125v-18.296874c0-59.914063 48.570313-108.480469 108.480469-108.480469h11.21875c5.140625 0 9.308594 4.167969 9.308594 9.308593zm0 0" fill="#edf0f5"/><path d="m373.851562 260.648438v18.296874c0 5.144532-4.167968 9.3125-9.3125 9.3125h-99.160156c-5.140625 0-9.308594-4.167968-9.308594-9.3125v-117.46875c0-5.140624 4.167969-9.308593 9.308594-9.308593 59.808594 0 108.472656 48.660156 108.472656 108.480469zm0 0" fill="#d8dceb"/><path d="m365.359375 361.230469c-41.597656 0-75.445313 33.84375-75.445313 75.445312 0 41.597657 33.847657 75.441407 75.445313 75.441407 41.601563 0 75.445313-33.84375 75.445313-75.441407 0-41.601562-33.84375-75.445312-75.445313-75.445312zm0 0" fill="#ff4c04"/><path d="m129.941406 361.230469c-41.597656 0-75.445312 33.84375-75.445312 75.445312 0 41.597657 33.847656 75.441407 75.445312 75.441407 41.601563 0 75.445313-33.84375 75.445313-75.441407 0-41.601562-33.84375-75.445312-75.445313-75.445312zm0 0" fill="#ff4c04"/><path d="m205.390625 436.675781c0 41.597657-33.84375 75.441407-75.445313 75.441407v-150.886719c41.601563 0 75.445313 33.84375 75.445313 75.445312zm0 0" fill="#d03b00"/><path d="m440.800781 436.675781c0 41.597657-33.84375 75.441407-75.441406 75.441407v-150.886719c41.597656 0 75.441406 33.84375 75.441406 75.445312zm0 0" fill="#d03b00"/><g fill="#ffde55"><path d="m393.792969 169.769531c-8.359375 0-15.132813-6.777343-15.132813-15.132812 0-12.398438-10.089844-22.488281-22.488281-22.488281-8.355469 0-15.132813-6.773438-15.132813-15.132813 0-8.355469 6.777344-15.128906 15.132813-15.128906 29.085937 0 52.75 23.664062 52.75 52.75 0 8.355469-6.773437 15.132812-15.128906 15.132812zm0 0"/><path d="m444.484375 162.636719c-8.355469 0-15.132813-6.777344-15.132813-15.132813 0-36.417968-29.628906-66.046875-66.046874-66.046875-8.359376 0-15.132813-6.777343-15.132813-15.132812s6.773437-15.132813 15.132813-15.132813c53.105468 0 96.3125 43.207032 96.3125 96.3125 0 8.355469-6.777344 15.132813-15.132813 15.132813zm0 0"/><path d="m495.179688 155.503906c-8.359376 0-15.132813-6.777344-15.132813-15.132812 0-60.4375-49.171875-109.609375-109.609375-109.609375-8.355469 0-15.132812-6.773438-15.132812-15.128907 0-8.359374 6.777343-15.132812 15.132812-15.132812 77.125 0 139.871094 62.746094 139.871094 139.871094 0 8.355468-6.773438 15.132812-15.128906 15.132812zm0 0"/></g><path d="m150.117188 436.675781c0 11.140625-9.03125 20.171875-20.175782 20.171875-11.140625 0-20.175781-9.03125-20.175781-20.171875 0-11.144531 9.035156-20.175781 20.175781-20.175781 11.144532 0 20.175782 9.03125 20.175782 20.175781zm0 0" fill="#ffb99d"/><path d="m385.535156 436.675781c0 11.140625-9.03125 20.171875-20.175781 20.171875-11.140625 0-20.175781-9.03125-20.175781-20.171875 0-11.144531 9.035156-20.175781 20.175781-20.175781 11.144531 0 20.175781 9.03125 20.175781 20.175781zm0 0" fill="#ffb99d"/><path d="m150.121094 436.675781c0 11.144531-9.039063 20.171875-20.175782 20.171875v-40.347656c11.136719 0 20.175782 9.039062 20.175782 20.175781zm0 0" fill="#ffa17b"/><path d="m385.53125 436.675781c0 11.144531-9.027344 20.171875-20.171875 20.171875v-40.347656c11.144531 0 20.171875 9.039062 20.171875 20.175781zm0 0" fill="#ffa17b"/><path d="m408.925781 154.636719c0 8.363281-6.777343 15.132812-15.132812 15.132812-8.359375 0-15.128907-6.769531-15.128907-15.132812 0-6.546875-2.816406-12.449219-7.292968-16.542969l21.40625-21.40625c9.953125 9.601562 16.148437 23.070312 16.148437 37.949219zm0 0" fill="#ffcd00"/><path d="m459.617188 147.503906c0 8.351563-6.78125 15.132813-15.132813 15.132813s-15.132813-6.78125-15.132813-15.132813c0-18.550781-7.683593-35.335937-20.042968-47.351562l21.386718-21.382813c17.84375 17.492188 28.921876 41.839844 28.921876 68.734375zm0 0" fill="#ffcd00"/><path d="m510.304688 140.371094c0 8.355468-6.769532 15.132812-15.128907 15.132812-8.355469 0-15.132812-6.777344-15.132812-15.132812 0-30.5625-12.570313-58.242188-32.816407-78.136719l21.386719-21.386719c25.722657 25.371094 41.691407 60.617188 41.691407 99.523438zm0 0" fill="#ffcd00"/></svg>